<svg width="32" height="19" viewBox="0 0 32 19" fill="none" xmlns="http://www.w3.org/2000/svg">
<g clip-path="url(#clip0_248_890)">
<path d="M17.5916 15.6119C21.9141 15.6119 25.2649 14.4161 27.7445 12.3899C28.6157 11.6923 29.3194 10.9283 29.8555 10.1976C30.0565 9.8986 30.2241 9.66608 30.3246 9.5C30.2241 9.33392 30.0565 9.06818 29.8555 8.80245C29.3194 8.03846 28.6157 7.30769 27.7445 6.61014C25.2649 4.61713 21.9476 3.38811 17.5916 3.38811C13.0346 3.38811 8.44398 5.97902 5.36126 9.5C8.44398 13.021 13.0346 15.6119 17.5916 15.6119ZM4.38953 8.3042C7.74031 4.65035 12.6325 2.02622 17.5916 2.02622C22.3497 2.02622 26.0691 3.35489 28.8503 5.61364C29.822 6.41084 30.5927 7.24126 31.2293 8.07168C31.5979 8.56993 31.8325 9.00175 31.9665 9.23427C32.0335 9.40035 32.0335 9.56643 31.9665 9.73252C31.866 9.96503 31.5979 10.3969 31.2293 10.8951C30.6262 11.7255 29.822 12.5892 28.8503 13.3531C26.0691 15.6119 22.3497 16.9738 17.5916 16.9738C12.6325 16.9738 7.77382 14.3497 4.38953 10.6958C2.64712 13.0542 1.57487 15.7448 1.57487 18.3357C1.57487 18.701 1.20628 19 0.770681 19C0.335079 19 0 18.701 0 18.3357C0 15.3129 1.30681 12.1906 3.38429 9.5C1.30681 6.80944 0 3.68706 0 0.664336C0 0.298951 0.368586 0 0.804189 0C1.23979 0 1.60838 0.298951 1.60838 0.664336C1.60838 3.25524 2.64712 5.9458 4.38953 8.3042Z" fill="#1C2938"/>
</g>
<defs>
<clipPath id="clip0_248_890">
<rect width="32" height="19" fill="white"/>
</clipPath>
</defs>
</svg>
