<svg width="22" height="25" viewBox="0 0 22 25" fill="none" xmlns="http://www.w3.org/2000/svg">
<g clip-path="url(#clip0_248_891)">
<path d="M21.6457 17.8049L18.9469 15.0115L18.9196 14.9833L18.647 8.18303C18.647 8.15481 18.6197 8.1266 18.5925 8.1266H14.5032C14.476 8.1266 14.4487 8.09838 14.4487 8.07016V5.16384C14.4487 2.25752 12.1315 -0.140898 9.32355 0.000185463C6.70645 0.141269 4.77089 2.25752 4.77089 4.99454V8.07016C4.77089 8.09838 4.74363 8.1266 4.71637 8.1266H0.627148C0.599887 8.1266 0.572625 8.15481 0.572625 8.18303L0.000134683 23.0532C-0.0271268 23.5611 0.163703 24.069 0.490841 24.4359C0.817979 24.8027 1.30868 25.0002 1.79939 25.0002H17.4475C18.4561 25.0002 19.2467 24.1537 19.2467 23.1097L19.2195 22.2067C19.2195 22.1785 19.2195 22.1785 19.2467 22.1503L21.6457 19.6672C22.1364 19.1593 22.1364 18.341 21.6457 17.8049ZM5.99766 4.99454C5.99766 3.07581 7.25168 1.58032 8.99642 1.29815C11.2319 0.931337 13.2219 2.82186 13.2219 5.16384V8.04195C13.2219 8.07016 13.1947 8.09838 13.1674 8.09838H6.05218C6.02492 8.09838 5.99766 8.07016 5.99766 8.04195V4.99454ZM17.4475 23.7304H1.79939C1.63582 23.7304 1.47225 23.674 1.36321 23.5329C1.25416 23.42 1.19964 23.2507 1.19964 23.0814L1.71761 9.42456C1.71761 9.39635 1.74487 9.36813 1.77213 9.36813H4.68911C4.71637 9.36813 4.74363 9.39635 4.74363 9.42456V11.7948C4.74363 11.823 4.77089 11.8512 4.79815 11.8512H5.88861C5.91587 11.8512 5.94313 11.823 5.94313 11.7948V9.42456C5.94313 9.39635 5.9704 9.36813 5.99766 9.36813H13.1129C13.1402 9.36813 13.1674 9.39635 13.1674 9.42456V11.7948C13.1674 11.823 13.1947 11.8512 13.2219 11.8512H14.3124C14.3397 11.8512 14.3669 11.823 14.3669 11.7948V9.42456C14.3669 9.39635 14.3942 9.36813 14.4214 9.36813H17.3384C17.3657 9.36813 17.3929 9.39635 17.3929 9.42456L17.6656 13.5442C17.6656 13.6006 17.611 13.6289 17.5565 13.6006L17.1203 13.1492C17.1203 13.1492 17.0931 13.121 17.0658 13.121H13.2765C13.2492 13.121 13.2219 13.1492 13.2219 13.1774V17.0995C13.2219 17.1277 13.2219 17.1277 13.2492 17.1559L17.9927 22.0656L18.02 22.0939L18.0745 23.1097C18.0745 23.4765 17.8019 23.7304 17.4475 23.7304ZM18.6197 20.937L14.4487 16.6198C14.4487 16.6198 14.4214 16.5916 14.4214 16.5634V14.4189C14.4214 14.3907 14.4487 14.3625 14.476 14.3625H16.5478C16.5751 14.3625 16.5751 14.3625 16.6024 14.3907L20.7734 18.7079C20.8006 18.7361 20.8006 18.7643 20.7734 18.7925L18.7015 20.937C18.6742 20.9652 18.647 20.9652 18.6197 20.937ZM16.1934 15.3783C16.2207 15.4629 16.248 15.5476 16.248 15.604C16.248 15.7733 16.1934 15.9426 16.0844 16.0555C15.9754 16.1684 15.8118 16.2248 15.6482 16.2248C15.4846 16.2248 15.3211 16.1684 15.212 16.0555C15.103 15.9426 15.0485 15.7733 15.0485 15.604C15.0485 15.5194 15.0757 15.4347 15.103 15.3783C15.1302 15.2936 15.1848 15.2372 15.2393 15.1808C15.4574 14.955 15.8663 14.955 16.0844 15.1808C16.1389 15.2372 16.1662 15.3219 16.1934 15.3783Z" fill="#1C2938"/>
<path d="M6.02486 11.597C6.02486 10.5812 6.02486 9.53718 6.02486 8.52138C6.02486 8.15456 5.72498 7.81596 5.37058 7.84418C5.01619 7.87239 4.71631 8.15456 4.71631 8.52138C4.71631 9.53718 4.71631 10.5812 4.71631 11.597C4.71631 11.9638 5.01619 12.3024 5.37058 12.2742C5.72498 12.246 6.02486 11.9638 6.02486 11.597Z" fill="#1C2938"/>
<path d="M14.5305 11.7381C14.5305 10.7223 14.5305 9.67829 14.5305 8.66249C14.5305 8.29567 14.2306 7.95707 13.8762 7.98529C13.5218 8.01351 13.2219 8.29567 13.2219 8.66249C13.2219 9.67829 13.2219 10.7223 13.2219 11.7381C13.2219 12.1049 13.5218 12.4435 13.8762 12.4153C14.2306 12.4153 14.5305 12.1331 14.5305 11.7381Z" fill="#1C2938"/>
</g>
<defs>
<clipPath id="clip0_248_891">
<rect width="22" height="25" fill="white"/>
</clipPath>
</defs>
</svg>
