<svg width="32" height="32" viewBox="0 0 32 32" fill="none" xmlns="http://www.w3.org/2000/svg">
<path fill-rule="evenodd" clip-rule="evenodd" d="M13.2847 9.45437C13.2847 10.034 13.2847 12.621 13.2847 12.621H11V16.4932H13.2847V28H17.9778V16.4935H21.1271C21.1271 16.4935 21.4221 14.6368 21.5651 12.6067C21.1551 12.6067 17.9956 12.6067 17.9956 12.6067C17.9956 12.6067 17.9956 10.354 17.9956 9.95917C17.9956 9.56346 18.5072 9.03117 19.013 9.03117C19.5178 9.03117 20.5832 9.03117 21.57 9.03117C21.57 8.50397 21.57 6.68236 21.57 5C20.2527 5 18.754 5 18.0933 5C13.1686 4.99973 13.2847 8.87577 13.2847 9.45437Z" fill="#1C2938"/>
</svg>
