<svg width="19" height="25" viewBox="0 0 19 25" fill="none" xmlns="http://www.w3.org/2000/svg">
<g clip-path="url(#clip0_248_892)">
<path d="M2.80463 22.9007H3.55203V24.5192C3.55203 24.7056 3.64267 24.8612 3.76396 24.9547L3.76379 24.955L3.76824 24.9577C3.92148 25.0523 4.10365 25.0513 4.25347 24.9897L4.2535 24.9898L4.25628 24.9884L6.68148 23.8113L9.13343 25.0162C9.13358 25.0163 9.13372 25.0163 9.13387 25.0164C9.16398 25.0319 9.2009 25.047 9.23779 25.0584C9.27421 25.0696 9.31406 25.0783 9.34877 25.0783C9.43965 25.0783 9.52887 25.0477 9.60865 25.0203L9.61245 25.019L9.61286 25.0202L9.6225 25.0143C9.77941 24.9174 9.83871 24.7565 9.83871 24.5758V22.929H16.2229C17.7916 22.929 19.0775 21.6043 19.0775 19.9943L19.0775 19.9938L19.05 17.336L19.05 17.3355L19.05 14.4514V14.0271V11.1425V2.88462C19.05 1.27463 17.7641 -0.05 16.1954 -0.05H2.80463C1.2359 -0.05 -0.05 1.27463 -0.05 2.88462V19.9661C-0.05 21.5761 1.2359 22.9007 2.80463 22.9007ZM6.44263 22.7762L6.4426 22.7761L6.44005 22.7773L4.50441 23.7045V20.2771C4.50441 20.2147 4.49119 20.1531 4.47363 20.1009H8.86212C8.84456 20.1531 8.83133 20.2147 8.83133 20.2771V23.7323L6.86947 22.7779C6.86929 22.7778 6.86911 22.7777 6.86893 22.7777C6.74338 22.7133 6.59044 22.7153 6.44263 22.7762ZM18.0701 19.9161H18.0426V19.9661C18.0426 21.0149 17.2108 21.8957 16.1679 21.8957H9.81122V20.2771C9.81122 20.2147 9.79799 20.1531 9.78043 20.1009H16.3603C16.9944 20.1009 17.6033 19.8705 18.0701 19.4819V19.9161ZM18.0701 17.286H18.0426V17.336C18.0426 18.3 17.2933 19.0959 16.3329 19.0959H2.63965C2.36326 19.0959 2.14971 19.3176 2.14971 19.5984C2.14971 19.8792 2.36326 20.1009 2.63965 20.1009H3.58281C3.56525 20.1531 3.55203 20.2147 3.55203 20.2771V21.8957H2.80463C1.78824 21.8957 0.929884 21.0423 0.929884 19.9661V18.948C0.929884 17.9839 1.67921 17.188 2.63965 17.188H16.3603C16.9944 17.188 17.6033 16.9576 18.0701 16.569V17.286ZM18.0426 11.1424V11.1425V14.0271V14.4514C18.0426 15.4154 17.2933 16.2113 16.3329 16.2113H2.63965C2.00564 16.2113 1.39673 16.4417 0.929884 16.8304V2.88462C0.929884 1.83576 1.76166 0.954977 2.80463 0.954977H16.1954C17.2117 0.954977 18.07 1.80833 18.0701 2.88445C18.0701 2.8845 18.0701 2.88456 18.0701 2.88462L18.0426 11.1424Z" fill="#1C2938" stroke="#1C2938" stroke-width="0.1"/>
<path d="M12.3184 6.22167H10.0912V3.19565C10.0912 2.94113 9.89875 2.74316 9.65128 2.74316C9.40381 2.74316 9.21134 2.94113 9.21134 3.19565V6.22167H6.98413C6.73666 6.22167 6.54419 6.41963 6.54419 6.67416C6.54419 6.92868 6.73666 7.12665 6.98413 7.12665H9.21134V14.3382C9.21134 14.5927 9.40381 14.7907 9.65128 14.7907C9.89875 14.7907 10.0912 14.5927 10.0912 14.3382V7.12665H12.3184C12.5659 7.12665 12.7584 6.92868 12.7584 6.67416C12.7584 6.41963 12.5384 6.22167 12.3184 6.22167Z" fill="#1C2938"/>
</g>
<defs>
<clipPath id="clip0_248_892">
<rect width="19" height="25" fill="white"/>
</clipPath>
</defs>
</svg>
