<svg width="50" height="22" viewBox="0 0 50 22" fill="none" xmlns="http://www.w3.org/2000/svg">
<path d="M39.1354 0C34.1866 0 30.4323 4.02089 27.1331 7.58225C26.3936 8.32898 25.711 9.07572 25.0284 9.76501C24.3458 9.07572 23.6633 8.32898 22.9238 7.58225C19.5677 4.02089 15.8134 0 10.8646 0C4.89192 0 0 4.93995 0 10.9713C0 17.0026 4.89192 21.9426 10.8646 21.9426C16.041 21.9426 19.9659 17.6919 23.3788 13.9008C23.9477 13.3264 24.4596 12.752 24.9716 12.1775C25.4835 12.6945 25.9955 13.2689 26.5643 13.9008C30.0341 17.6919 33.959 21.9426 39.0785 21.9426C45.1081 21.9426 49.9431 17.0026 49.9431 10.9713C49.9431 4.93995 45.165 0 39.1354 0ZM22.1843 12.752C18.942 16.2559 15.3015 20.2193 10.9215 20.2193C5.80205 20.2768 1.70648 16.0836 1.70648 10.9713C1.70648 5.85901 5.80205 1.72324 10.8646 1.72324C15.0739 1.72324 18.3732 5.2846 21.6155 8.78851C22.3549 9.59269 23.0375 10.3394 23.777 11.0287C23.2651 11.6031 22.7531 12.1775 22.1843 12.752ZM39.1354 20.2768C34.6985 20.2768 31.058 16.3133 27.8726 12.8094C27.3038 12.1775 26.7918 11.6031 26.223 11.0287C26.9056 10.3394 27.6451 9.59269 28.3845 8.78851C31.6269 5.2846 34.9261 1.72324 39.1354 1.72324C44.198 1.72324 48.2935 5.85901 48.2935 10.9713C48.2935 16.0836 44.198 20.2768 39.1354 20.2768Z" fill="#1C2938"/>
</svg>
