<svg width="32" height="32" viewBox="0 0 32 32" fill="none" xmlns="http://www.w3.org/2000/svg">
<path fill-rule="evenodd" clip-rule="evenodd" d="M10.623 4H21.3767C25.0289 4 28.0001 6.97122 28 10.6231V21.3769C28 25.0288 25.0289 28 21.3767 28H10.623C6.97108 28 4 25.0289 4 21.3769V10.6231C4 6.97122 6.97108 4 10.623 4ZM21.3769 25.8706C23.8548 25.8706 25.8707 23.8548 25.8707 21.3769H25.8706V10.6231C25.8706 8.14537 23.8546 6.1294 21.3767 6.1294H10.623C8.14522 6.1294 6.1294 8.14537 6.1294 10.6231V21.3769C6.1294 23.8548 8.14522 25.8707 10.623 25.8706H21.3769ZM9.69492 15.7968C9.69492 12.4321 12.4321 9.69492 15.7966 9.69492C19.1611 9.69492 21.8983 12.4321 21.8983 15.7968C21.8983 19.1612 19.1611 21.8983 15.7966 21.8983C12.4321 21.8983 9.69492 19.1612 9.69492 15.7968ZM11.7959 15.7966C11.7959 18.0026 13.5907 19.7971 15.7966 19.7971C18.0025 19.7971 19.7973 18.0026 19.7973 15.7966C19.7973 13.5905 18.0026 11.7958 15.7966 11.7958C13.5906 11.7958 11.7959 13.5905 11.7959 15.7966ZM21.1557 8.5441C21.4577 8.24086 21.8776 8.0678 22.3051 8.0678C22.7341 8.0678 23.1541 8.24086 23.4559 8.5441C23.7591 8.84586 23.9322 9.26595 23.9322 9.69492C23.9322 10.1224 23.7591 10.5425 23.4559 10.8457C23.1527 11.1475 22.7341 11.322 22.3051 11.322C21.8776 11.322 21.4575 11.1475 21.1557 10.8457C20.8525 10.5425 20.678 10.1226 20.678 9.69492C20.678 9.26595 20.8524 8.84586 21.1557 8.5441Z" fill="#1C2938"/>
</svg>
