<svg width="55" height="56" viewBox="0 0 55 56" fill="none" xmlns="http://www.w3.org/2000/svg">
<path fill-rule="evenodd" clip-rule="evenodd" d="M33.7264 50.1016C33.3373 50.494 33.3373 51.0173 33.3373 51.4097C33.3373 52.7179 33.3373 54.026 33.3373 55.4649C33.3373 55.5958 33.3373 55.7266 33.2075 55.8574C33.0778 56.119 32.6887 55.9882 32.559 55.7266C32.0401 54.5493 31.1321 53.5027 30.0943 52.7179C29.1863 51.933 28.0189 51.2789 26.9811 50.6248C24.9057 49.3167 22.8302 48.0086 20.7547 46.7004C18.9387 45.6539 17.1226 44.6074 15.3066 43.4301C13.2311 42.122 11.1557 40.8138 9.2099 39.2441C8.17217 38.4592 7.13444 37.6743 6.0967 36.8894C4.5401 35.5813 3.11321 34.0115 2.07547 32.1801C1.16745 30.6104 0.648591 28.9098 0.25944 27.2092C5.93411e-06 25.9011 0 24.593 0 23.2848C0.129717 21.7151 0.51887 20.1453 1.16745 18.7063C1.68632 17.3982 2.46463 16.0901 3.50236 15.0436C4.5401 13.7354 5.83727 12.5581 7.39387 11.904C8.43161 11.5116 9.46934 11.1192 10.5071 10.9883C11.2854 10.8575 12.0637 10.7267 12.842 10.5959C13.75 10.4651 14.658 10.4651 15.6958 10.5959C17.1226 10.7267 18.5495 10.9883 19.8467 11.5116C21.0142 11.904 22.0519 12.5581 22.9599 13.343C23.6085 13.8662 24.2571 14.5203 24.9057 15.1744C25.4245 15.6976 25.8137 16.2209 26.3326 16.7441C26.4623 16.8749 26.4623 16.875 26.592 17.0058C26.7217 17.0058 26.8514 17.1366 26.8514 17.0058C26.8514 17.0058 26.9811 16.8749 26.9811 16.7441C26.7217 15.8284 26.7217 14.7819 26.7217 13.8662C26.8514 11.7732 27.5 9.94183 28.7972 8.24125C29.7052 6.93312 30.8726 5.88661 32.0401 4.97091C32.9481 4.31685 33.8561 3.53197 34.7642 2.74708C33.0778 3.53197 31.5212 4.31685 29.8349 5.10173C29.8349 5.10173 29.8349 5.10173 29.8349 4.97091C30.2241 4.57847 30.4835 4.05522 31.0024 3.79359C32.0401 3.13953 33.0778 2.35464 34.1156 1.83139C35.283 1.17732 36.5802 0.784881 37.8774 0.523254C38.7854 0.39244 39.6934 0.39244 40.6014 0.261627C41.5094 0.130813 42.5472 0.130814 43.4552 0C44.3632 0 45.1415 0.261627 45.9198 0.523254C46.8278 0.915695 47.7358 1.43895 48.6439 2.09302C49.2925 2.61627 49.941 3.27034 50.4599 3.92441C51.3679 5.10173 52.1462 6.27905 52.7948 7.58719C53.3137 8.76451 53.7028 9.94183 54.092 11.25C54.3514 12.2965 54.6109 13.2122 54.7406 14.2587C54.8703 15.436 55 16.4825 55 17.6598C55 19.2296 54.7406 20.7994 54.3514 22.2383C53.9623 23.5464 53.5731 24.7238 52.9245 25.9011C52.1462 27.2092 51.4976 28.3865 50.5896 29.5639C49.8113 30.6104 49.033 31.6569 48.2547 32.5726C47.7359 33.2266 47.0873 34.0115 46.5684 34.6656C45.6604 35.7121 44.7524 36.7586 43.8443 37.6743C43.1958 38.3284 42.5472 39.1133 41.8986 39.7673C41.25 40.5522 40.4717 41.2063 39.8231 41.9911C39.0448 42.776 38.2665 43.6917 37.4882 44.4766C36.8396 45.2615 36.4505 46.1772 36.191 47.0929C35.9316 48.0086 35.6722 48.9243 35.4127 49.84C35.283 50.3632 35.0236 50.3632 34.6344 50.1016C33.8561 50.2324 33.8561 50.1016 33.7264 50.1016ZM29.4458 20.5377C29.316 20.5377 29.316 20.5377 29.4458 20.5377C29.0566 20.1453 28.7972 19.7528 28.6674 19.2296C28.408 18.7063 28.1486 18.1831 27.5 18.1831C26.9811 18.1831 26.592 17.7906 26.2028 17.3982C26.0731 17.2674 25.9434 17.1366 25.8137 17.0058C25.2948 16.7441 24.7759 16.4825 24.1274 16.2209C21.7924 15.436 19.4576 14.6511 17.1226 13.8662C15.9552 13.4738 14.7877 13.343 13.6203 13.343C12.7123 13.343 11.6745 13.4738 10.7665 13.7354C10.5071 13.8662 10.1179 13.9971 9.85849 14.1279C10.3774 14.1279 10.7665 14.1279 11.2854 14.2587C11.6745 14.2587 12.1934 14.3895 12.5826 14.3895C11.5448 14.9127 10.5071 15.3052 9.46934 15.8284C8.69104 16.2209 8.04246 16.6133 7.39387 17.2674C6.61557 18.0523 6.35614 19.0988 6.22642 20.1453C6.0967 21.061 5.83727 21.9767 5.57783 23.0232C5.3184 23.9389 5.05896 24.7238 5.18868 25.6395C5.44811 26.686 5.70755 27.6017 6.0967 28.5174C6.74529 30.0871 7.91274 31.3953 9.08019 32.7034C10.2476 33.8807 11.5448 34.9272 12.7123 35.9737C14.1392 37.1511 15.6958 38.3284 17.2524 39.3749C19.0684 40.683 21.0141 41.9911 22.8302 43.2993C23.8679 43.9534 24.7759 44.6074 25.8137 45.3923C26.592 45.9156 27.2406 46.4388 27.8892 47.0929C28.2783 47.4853 28.6675 47.8778 29.0566 48.2702C29.8349 49.0551 30.6132 49.84 31.5212 50.3632C31.7807 50.494 31.9104 50.494 31.9104 50.1016C32.1698 48.9243 32.2995 47.7469 32.559 46.7004C32.9481 44.869 33.5967 43.1685 34.6344 41.7295C35.1533 40.9446 35.9316 40.1598 36.4505 39.3749C37.4882 38.0667 38.5259 36.6278 39.5637 35.3197C40.6014 34.0115 41.6392 32.7034 42.8066 31.5261C43.1958 31.1336 43.5849 30.872 43.8443 30.4796C44.6226 29.3022 45.4009 28.2557 46.0495 26.9476C47.0873 25.1162 47.9953 23.2848 48.5142 21.3226C48.7736 20.2761 49.033 19.0988 49.033 18.0523C49.033 16.875 48.9033 15.8284 48.7736 14.6511C48.6439 13.4738 48.2547 12.2965 47.7359 11.1192C47.217 10.0726 46.6981 9.15695 45.9198 8.24125C45.1415 7.19475 44.1038 6.40986 42.9363 6.01742C42.0283 5.62498 41.1203 5.49417 40.0826 5.36336C39.3042 5.23254 38.3962 5.23254 37.6179 5.49417C36.9693 5.62498 36.4505 5.88661 35.8019 6.14824C33.3373 7.06393 31.6509 8.76451 30.3538 10.9883C29.316 12.8197 29.0566 14.7819 28.9269 16.8749C28.9269 17.6598 29.0566 18.4447 29.0566 19.0988C29.4458 19.2296 29.4458 19.8837 29.4458 20.5377ZM6.35613 31.5261C6.35613 31.6569 6.35613 31.6569 6.35613 31.5261C6.875 32.7034 7.52358 33.7499 8.4316 34.6656C8.69104 34.9272 8.95048 35.3197 9.46934 35.3197C8.30189 34.0115 7.39387 32.8342 6.35613 31.5261ZM51.1085 24.3313C51.6274 23.0232 52.0165 21.7151 52.5354 20.2761C51.8868 21.1918 50.9788 23.5464 51.1085 24.3313ZM38.1368 1.17732C38.2665 1.56976 38.7854 1.70058 38.9151 1.43895V1.17732C38.6557 1.30814 38.3962 1.30814 38.1368 1.17732Z" fill="#A64445"/>
</svg>
