<svg width="32" height="32" viewBox="0 0 32 32" fill="none" xmlns="http://www.w3.org/2000/svg">
<path fill-rule="evenodd" clip-rule="evenodd" d="M14.9212 5.07756C11.0391 5.50539 7.16871 8.59075 7.00805 13.0026C6.91018 15.696 7.68721 17.716 10.2942 18.2846C11.4232 16.3206 9.93059 15.8913 9.69691 14.4685C8.74025 8.65389 16.5205 4.68273 20.5954 8.7458C23.4171 11.5598 21.5578 20.2113 17.0127 19.3112C12.6588 18.4526 19.145 11.5655 15.6705 10.2145C12.8458 9.11479 11.3458 13.5741 12.6851 15.7908C11.8994 19.6026 10.2081 23.1919 10.8931 27.9713C13.1131 26.3863 13.8623 23.3556 14.4757 20.1927C15.5916 20.8603 16.189 21.5509 17.6115 21.6586C22.8577 22.0591 25.7919 16.5101 25.0719 11.3875C24.4336 6.8478 19.8315 4.53632 14.9212 5.07756Z" fill="#1C2938"/>
</svg>
