<svg width="40" height="40" viewBox="0 0 40 40" fill="none" xmlns="http://www.w3.org/2000/svg">
<rect x="0.75" y="0.75" width="38.5" height="38.5" rx="9.25" fill="#F6F5F2" stroke="#1C2938" stroke-width="1.5"/>
<path d="M18.0787 5.92985C15.6262 5.92985 13.5987 7.82236 13.5987 10.1986V12.3274H11.9487C11.6825 12.3549 11.4462 12.5661 11.3887 12.8274L7.85882 28.821C7.77507 29.1922 8.09757 29.5985 8.47882 29.601H19.0977C20.0239 32.2097 22.5179 34.0896 25.4366 34.0896C29.1403 34.0896 32.1652 31.0646 32.1652 27.3623C32.1652 24.0285 29.7077 21.2448 26.5166 20.7248L24.7766 12.8272C24.7128 12.5447 24.4366 12.3247 24.1466 12.3272H22.5565V10.1985C22.5565 7.82223 20.5291 5.92969 18.0765 5.92969L18.0787 5.92985ZM18.0787 7.20985C19.88 7.20985 21.2787 8.54735 21.2787 10.1986V12.3273H14.88V10.1986C14.88 8.54732 16.2775 7.20985 18.08 7.20985H18.0787ZM12.52 13.6073H13.6V14.2473C13.595 14.5848 13.9013 14.896 14.24 14.896C14.5775 14.896 14.885 14.5848 14.88 14.2473V13.6073H21.2787V14.2473C21.2737 14.5848 21.58 14.896 21.9187 14.896C22.2562 14.896 22.5637 14.5848 22.5587 14.2473V13.6073H23.6287L25.1887 20.6447C21.5987 20.776 18.71 23.7422 18.71 27.3622C18.71 27.6884 18.735 28.0084 18.78 28.3222H9.27122L12.52 13.6073ZM25.4387 21.9346C28.45 21.9346 30.8675 24.3522 30.8675 27.3622C30.8675 30.3734 28.45 32.7897 25.4387 32.7897C22.4274 32.7897 20.0099 30.3722 20.0099 27.3622C20.0099 24.3509 22.4274 21.9346 25.4387 21.9346ZM25.3687 24.7934C25.0537 24.8284 24.7925 25.1272 24.7987 25.4434V26.7234H23.4587C23.1225 26.7371 22.8287 27.0571 22.845 27.3934C22.8612 27.7297 23.1825 28.0209 23.5187 28.0034H24.7987V29.2834C24.7937 29.6209 25.1 29.9321 25.4387 29.9321C25.7762 29.9321 26.0837 29.6209 26.0787 29.2834V28.0034H27.3587C27.6975 28.0084 28.0087 27.7021 28.0087 27.3634C28.0087 27.0246 27.6975 26.7184 27.3587 26.7234H26.0787V25.4434C26.0862 25.0809 25.73 24.7534 25.3687 24.7934Z" fill="#1C2938"/>
</svg>
