<svg width="17" height="17" viewBox="0 0 17 17" fill="none" xmlns="http://www.w3.org/2000/svg">
<path fill-rule="evenodd" clip-rule="evenodd" d="M8.90195 0.280012L11.0643 5.64692L16.6003 6.14563C16.9843 6.18041 17.1405 6.68278 16.849 6.94724L12.6499 10.7622L13.9082 16.4375C13.9955 16.8319 13.588 17.1421 13.2581 16.9325L8.50054 13.9238L3.74296 16.9325C3.41223 17.1412 3.00559 16.8309 3.09285 16.4375L4.35118 10.7622L0.151211 6.94632C-0.140248 6.68187 0.0150808 6.17949 0.399911 6.14472L5.93588 5.646L8.09826 0.280012C8.24835 -0.0933375 8.75186 -0.0933375 8.90195 0.280012ZM8.11694 6.83252L8.10225 7.39899C8.04931 9.48331 8.00751 11.5934 8.00091 11.9306L8 11.9773L11.3581 13.9559C11.5915 14.0931 11.8785 13.8891 11.817 13.6304L10.9288 9.89816L13.8933 7.38876C14.099 7.21484 13.9894 6.88447 13.7177 6.8616L9.81023 6.53363L8.28395 3.00482C8.23539 2.89229 8.1717 4.76775 8.11694 6.83252Z" fill="#DB9D71"/>
</svg>
