<svg width="22" height="22" viewBox="0 0 22 22" fill="none" xmlns="http://www.w3.org/2000/svg">
<g clip-path="url(#clip0_248_893)">
<path d="M0 8.81167C0 11.1751 0.933687 13.3634 2.59682 15.0265C4.25995 16.6897 6.44828 17.5942 8.81167 17.5942C10.8833 17.5942 12.809 16.8939 14.3846 15.6101L20.5411 21.7666C20.7162 21.9416 20.9204 22.0292 21.1538 22.0292C21.3873 22.0292 21.5915 21.9416 21.7666 21.7666C22.1167 21.4164 22.1167 20.8912 21.7666 20.5411L15.5809 14.3554C18.4111 10.9125 18.2069 5.77719 14.9973 2.53846C13.3342 0.904509 11.1459 0 8.78249 0C6.44828 0 4.23077 0.904509 2.56764 2.59682C0.904509 4.25995 0 6.44828 0 8.81167ZM1.72149 8.81167C1.72149 6.91512 2.45093 5.13528 3.7931 3.82228C5.13528 2.48011 6.91512 1.75066 8.81167 1.75066C10.7082 1.75066 12.4589 2.48011 13.8011 3.82228C16.5729 6.56499 16.5729 11.0584 13.8302 13.8302C12.4881 15.1724 10.7082 15.9019 8.81167 15.9019C6.91512 15.9019 5.16446 15.1724 3.82228 13.8302C2.45093 12.4589 1.72149 10.679 1.72149 8.81167Z" fill="#1C2938"/>
</g>
<defs>
<clipPath id="clip0_248_893">
<rect width="22" height="22" fill="white"/>
</clipPath>
</defs>
</svg>
