<svg width="24" height="24" viewBox="0 0 24 24" fill="none" xmlns="http://www.w3.org/2000/svg">
<g clip-path="url(#clip0_777_7829)">
<mask id="path-1-outside-1_777_7829" maskUnits="userSpaceOnUse" x="-1" y="3" width="26" height="19" fill="black">
<rect fill="white" x="-1" y="3" width="26" height="19"/>
<path d="M1.46978 4H14.082C14.4716 4.00045 14.8452 4.15053 15.1207 4.41733C15.3962 4.68413 15.5512 5.04587 15.5517 5.42318V7.21852H19.2928C19.7421 7.21811 20.183 7.33604 20.5683 7.55967C20.9536 7.7833 21.2688 8.10421 21.4803 8.48804L23.5282 12.1972C23.8374 12.7587 23.9994 13.3851 24 14.0214V17.9046C23.9996 18.2819 23.8446 18.6437 23.569 18.9105C23.2935 19.1773 22.92 19.3273 22.5303 19.3278H20.798C20.7087 19.8721 20.4219 20.3677 19.9891 20.7256C19.5563 21.0834 19.0058 21.28 18.4367 21.28C17.8676 21.28 17.3172 21.0834 16.8843 20.7256C16.4515 20.3677 16.1647 19.8721 16.0755 19.3278H7.10964C7.02043 19.8721 6.73363 20.3677 6.30081 20.7256C5.86799 21.0834 5.31754 21.28 4.74842 21.28C4.1793 21.28 3.62885 21.0834 3.19602 20.7256C2.7632 20.3677 2.47641 19.8721 2.3872 19.3278H0.459278C0.398954 19.3278 0.339216 19.3163 0.283478 19.294C0.227739 19.2717 0.177095 19.2389 0.134439 19.1976C0.0917835 19.1563 0.0579529 19.1073 0.0348854 19.0533C0.0118179 18.9993 -3.62396e-05 18.9415 0 18.883V5.42327C0.000436783 5.04592 0.15543 4.68416 0.430973 4.41733C0.706516 4.15051 1.08011 4.00042 1.46978 4ZM20.953 9.41947H17.6783L18.1599 12.4932H22.6503L20.953 9.41947ZM18.4366 20.3904C18.7296 20.3904 19.016 20.3063 19.2597 20.1487C19.5033 19.991 19.6932 19.767 19.8053 19.5049C19.9175 19.2427 19.9468 18.9543 19.8897 18.676C19.8325 18.3977 19.6914 18.1421 19.4842 17.9415C19.277 17.7408 19.0131 17.6042 18.7257 17.5488C18.4383 17.4935 18.1404 17.5219 17.8697 17.6305C17.599 17.7391 17.3677 17.9229 17.2049 18.1588C17.0421 18.3948 16.9552 18.6721 16.9552 18.9558C16.9557 19.3361 17.112 19.7007 17.3897 19.9697C17.6674 20.2386 18.0439 20.3899 18.4366 20.3904ZM4.74839 20.3904C5.0414 20.3904 5.32783 20.3063 5.57146 20.1487C5.81509 19.991 6.00497 19.767 6.11711 19.5049C6.22924 19.2427 6.25859 18.9543 6.20143 18.676C6.14427 18.3977 6.00318 18.1421 5.796 17.9415C5.58882 17.7408 5.32485 17.6042 5.03748 17.5488C4.7501 17.4935 4.45223 17.5219 4.18152 17.6305C3.91082 17.7391 3.67945 17.9229 3.51666 18.1588C3.35388 18.3948 3.26699 18.6721 3.26699 18.9558C3.26752 19.3361 3.42377 19.7007 3.70147 19.9697C3.97917 20.2386 4.35566 20.3899 4.74839 20.3904ZM0.918558 18.438H2.41323C2.53321 17.9251 2.8297 17.4669 3.25402 17.1387C3.67835 16.8104 4.2053 16.6316 4.74839 16.6316C5.29148 16.6316 5.81844 16.8104 6.24277 17.1387C6.6671 17.4669 6.96358 17.9251 7.08355 18.438H16.1014C16.2214 17.9251 16.5179 17.4669 16.9422 17.1387C17.3665 16.8105 17.8935 16.6317 18.4365 16.6317C18.9796 16.6317 19.5066 16.8105 19.9309 17.1387C20.3552 17.4669 20.6517 17.9251 20.7717 18.438H22.5302C22.6763 18.4378 22.8164 18.3816 22.9198 18.2815C23.0231 18.1815 23.0812 18.0458 23.0813 17.9043V17.3654H21.9542C21.8324 17.3654 21.7156 17.3185 21.6295 17.2351C21.5433 17.1517 21.495 17.0386 21.495 16.9206C21.495 16.8027 21.5433 16.6895 21.6295 16.6061C21.7156 16.5227 21.8324 16.4759 21.9542 16.4759H23.0814V14.0209C23.0799 13.8061 23.0545 13.5921 23.0054 13.3827H17.7651C17.6552 13.3826 17.549 13.3445 17.4658 13.2751C17.3825 13.2057 17.3277 13.1098 17.3112 13.0046L16.69 9.04148C16.6799 8.97816 16.6841 8.91347 16.7023 8.85187C16.7205 8.79027 16.7523 8.73321 16.7954 8.68462C16.8385 8.63603 16.892 8.59705 16.9522 8.57036C17.0123 8.54368 17.0777 8.52992 17.1439 8.53003H20.3713C20.0817 8.25964 19.6952 8.10835 19.2928 8.10788H15.5518V17.0136C15.5518 17.1315 15.5034 17.2446 15.4173 17.328C15.3311 17.4114 15.2143 17.4583 15.0925 17.4583C14.9707 17.4583 14.8539 17.4114 14.7677 17.328C14.6816 17.2446 14.6332 17.1315 14.6332 17.0136V5.42327C14.6331 5.28177 14.575 5.1461 14.4716 5.04605C14.3683 4.94599 14.2282 4.88972 14.0821 4.88958H1.46978C1.32366 4.88972 1.18356 4.94599 1.08023 5.04605C0.976908 5.1461 0.918795 5.28177 0.91865 5.42327L0.918558 18.438Z"/>
</mask>
<path d="M1.46978 4H14.082C14.4716 4.00045 14.8452 4.15053 15.1207 4.41733C15.3962 4.68413 15.5512 5.04587 15.5517 5.42318V7.21852H19.2928C19.7421 7.21811 20.183 7.33604 20.5683 7.55967C20.9536 7.7833 21.2688 8.10421 21.4803 8.48804L23.5282 12.1972C23.8374 12.7587 23.9994 13.3851 24 14.0214V17.9046C23.9996 18.2819 23.8446 18.6437 23.569 18.9105C23.2935 19.1773 22.92 19.3273 22.5303 19.3278H20.798C20.7087 19.8721 20.4219 20.3677 19.9891 20.7256C19.5563 21.0834 19.0058 21.28 18.4367 21.28C17.8676 21.28 17.3172 21.0834 16.8843 20.7256C16.4515 20.3677 16.1647 19.8721 16.0755 19.3278H7.10964C7.02043 19.8721 6.73363 20.3677 6.30081 20.7256C5.86799 21.0834 5.31754 21.28 4.74842 21.28C4.1793 21.28 3.62885 21.0834 3.19602 20.7256C2.7632 20.3677 2.47641 19.8721 2.3872 19.3278H0.459278C0.398954 19.3278 0.339216 19.3163 0.283478 19.294C0.227739 19.2717 0.177095 19.2389 0.134439 19.1976C0.0917835 19.1563 0.0579529 19.1073 0.0348854 19.0533C0.0118179 18.9993 -3.62396e-05 18.9415 0 18.883V5.42327C0.000436783 5.04592 0.15543 4.68416 0.430973 4.41733C0.706516 4.15051 1.08011 4.00042 1.46978 4ZM20.953 9.41947H17.6783L18.1599 12.4932H22.6503L20.953 9.41947ZM18.4366 20.3904C18.7296 20.3904 19.016 20.3063 19.2597 20.1487C19.5033 19.991 19.6932 19.767 19.8053 19.5049C19.9175 19.2427 19.9468 18.9543 19.8897 18.676C19.8325 18.3977 19.6914 18.1421 19.4842 17.9415C19.277 17.7408 19.0131 17.6042 18.7257 17.5488C18.4383 17.4935 18.1404 17.5219 17.8697 17.6305C17.599 17.7391 17.3677 17.9229 17.2049 18.1588C17.0421 18.3948 16.9552 18.6721 16.9552 18.9558C16.9557 19.3361 17.112 19.7007 17.3897 19.9697C17.6674 20.2386 18.0439 20.3899 18.4366 20.3904ZM4.74839 20.3904C5.0414 20.3904 5.32783 20.3063 5.57146 20.1487C5.81509 19.991 6.00497 19.767 6.11711 19.5049C6.22924 19.2427 6.25859 18.9543 6.20143 18.676C6.14427 18.3977 6.00318 18.1421 5.796 17.9415C5.58882 17.7408 5.32485 17.6042 5.03748 17.5488C4.7501 17.4935 4.45223 17.5219 4.18152 17.6305C3.91082 17.7391 3.67945 17.9229 3.51666 18.1588C3.35388 18.3948 3.26699 18.6721 3.26699 18.9558C3.26752 19.3361 3.42377 19.7007 3.70147 19.9697C3.97917 20.2386 4.35566 20.3899 4.74839 20.3904ZM0.918558 18.438H2.41323C2.53321 17.9251 2.8297 17.4669 3.25402 17.1387C3.67835 16.8104 4.2053 16.6316 4.74839 16.6316C5.29148 16.6316 5.81844 16.8104 6.24277 17.1387C6.6671 17.4669 6.96358 17.9251 7.08355 18.438H16.1014C16.2214 17.9251 16.5179 17.4669 16.9422 17.1387C17.3665 16.8105 17.8935 16.6317 18.4365 16.6317C18.9796 16.6317 19.5066 16.8105 19.9309 17.1387C20.3552 17.4669 20.6517 17.9251 20.7717 18.438H22.5302C22.6763 18.4378 22.8164 18.3816 22.9198 18.2815C23.0231 18.1815 23.0812 18.0458 23.0813 17.9043V17.3654H21.9542C21.8324 17.3654 21.7156 17.3185 21.6295 17.2351C21.5433 17.1517 21.495 17.0386 21.495 16.9206C21.495 16.8027 21.5433 16.6895 21.6295 16.6061C21.7156 16.5227 21.8324 16.4759 21.9542 16.4759H23.0814V14.0209C23.0799 13.8061 23.0545 13.5921 23.0054 13.3827H17.7651C17.6552 13.3826 17.549 13.3445 17.4658 13.2751C17.3825 13.2057 17.3277 13.1098 17.3112 13.0046L16.69 9.04148C16.6799 8.97816 16.6841 8.91347 16.7023 8.85187C16.7205 8.79027 16.7523 8.73321 16.7954 8.68462C16.8385 8.63603 16.892 8.59705 16.9522 8.57036C17.0123 8.54368 17.0777 8.52992 17.1439 8.53003H20.3713C20.0817 8.25964 19.6952 8.10835 19.2928 8.10788H15.5518V17.0136C15.5518 17.1315 15.5034 17.2446 15.4173 17.328C15.3311 17.4114 15.2143 17.4583 15.0925 17.4583C14.9707 17.4583 14.8539 17.4114 14.7677 17.328C14.6816 17.2446 14.6332 17.1315 14.6332 17.0136V5.42327C14.6331 5.28177 14.575 5.1461 14.4716 5.04605C14.3683 4.94599 14.2282 4.88972 14.0821 4.88958H1.46978C1.32366 4.88972 1.18356 4.94599 1.08023 5.04605C0.976908 5.1461 0.918795 5.28177 0.91865 5.42327L0.918558 18.438Z" fill="#1C2938"/>
<path d="M23.1039 16.4759L23.1038 17.3654L23.0588 17.3654L23.0589 16.4759L23.1039 16.4759ZM1.46978 4L1.46973 3.955H1.46978V4ZM14.082 4V3.955L14.0821 3.955L14.082 4ZM15.5517 5.42318L15.5967 5.42313V5.42318H15.5517ZM15.5517 7.21852V7.26352H15.5067V7.21852H15.5517ZM19.2928 7.21852L19.2929 7.26352H19.2928V7.21852ZM21.4803 8.48804L21.4409 8.50979L21.4408 8.50975L21.4803 8.48804ZM23.5282 12.1972L23.5676 12.1755L23.5676 12.1755L23.5282 12.1972ZM24 14.0214L24.045 14.0213V14.0214H24ZM24 17.9046H24.045L24.045 17.9047L24 17.9046ZM22.5303 19.3278L22.5304 19.3728H22.5303V19.3278ZM20.798 19.3278L20.7535 19.3205L20.7597 19.2828H20.798V19.3278ZM16.0755 19.3278V19.2828H16.1137L16.1199 19.3205L16.0755 19.3278ZM7.10964 19.3278L7.06524 19.3205L7.07142 19.2828H7.10964V19.3278ZM2.3872 19.3278V19.2828H2.42542L2.4316 19.3205L2.3872 19.3278ZM0.459278 19.3278L0.459251 19.2828H0.459278V19.3278ZM0 18.883H0.0450001V18.8831L0 18.883ZM0 5.42327H-0.0450001V5.42322L0 5.42327ZM20.953 9.41947V9.37447H20.9796L20.9924 9.39772L20.953 9.41947ZM17.6783 9.41947L17.6339 9.42644L17.6257 9.37447H17.6783V9.41947ZM18.1599 12.4932V12.5382H18.1214L18.1154 12.5001L18.1599 12.4932ZM22.6503 12.4932L22.6897 12.4714L22.7265 12.5382H22.6503V12.4932ZM18.4366 20.3904L18.4366 20.4354H18.4366L18.4366 20.3904ZM16.9552 18.9558L16.9102 18.9559V18.9558H16.9552ZM4.74839 20.3904L4.74839 20.4354H4.74833L4.74839 20.3904ZM3.26699 18.9558L3.22199 18.9559V18.9558H3.26699ZM0.918558 18.438V18.483H0.873558V18.438H0.918558ZM2.41323 18.438L2.45705 18.4482L2.44892 18.483H2.41323V18.438ZM7.08355 18.438V18.483H7.04786L7.03974 18.4482L7.08355 18.438ZM16.1014 18.438L16.1452 18.4482L16.1371 18.483H16.1014V18.438ZM18.4365 16.6317V16.6767V16.6317ZM20.7717 18.438V18.483H20.736L20.7279 18.4482L20.7717 18.438ZM22.5302 18.438L22.5303 18.483H22.5302V18.438ZM23.0813 17.9043H23.1263L23.1263 17.9043L23.0813 17.9043ZM23.0813 17.3654V17.3204H23.1263V17.3654H23.0813ZM23.0814 16.4759H23.1264V16.5209H23.0814V16.4759ZM23.0814 14.0209L23.1264 14.0206V14.0209H23.0814ZM23.0054 13.3827V13.3377H23.0411L23.0492 13.3724L23.0054 13.3827ZM17.7651 13.3827V13.4277H17.765L17.7651 13.3827ZM17.3112 13.0046L17.3557 12.9977L17.3557 12.9977L17.3112 13.0046ZM16.69 9.04148L16.7344 9.03442L16.7344 9.03451L16.69 9.04148ZM17.1439 8.53003V8.57503H17.1438L17.1439 8.53003ZM20.3713 8.53003L20.402 8.49713L20.4855 8.57503H20.3713V8.53003ZM19.2928 8.10788V8.06288H19.2929L19.2928 8.10788ZM15.5518 8.10788H15.5068V8.06288H15.5518V8.10788ZM14.6332 5.42327L14.6782 5.42322V5.42327H14.6332ZM14.0821 4.88958V4.84458L14.0821 4.84458L14.0821 4.88958ZM1.46978 4.88958L1.46974 4.84458H1.46978V4.88958ZM0.91865 5.42327L0.87365 5.42327V5.42322L0.91865 5.42327ZM1.46978 3.955H14.082V4.045H1.46978V3.955ZM14.0821 3.955C14.4832 3.95546 14.868 4.10995 15.152 4.38501L15.0894 4.44966C14.8224 4.19112 14.4601 4.04543 14.082 4.045L14.0821 3.955ZM15.152 4.38501C15.4361 4.66011 15.5962 5.03342 15.5967 5.42313L15.5067 5.42324C15.5063 5.05831 15.3564 4.70816 15.0894 4.44966L15.152 4.38501ZM15.5967 5.42318V7.21852H15.5067V5.42318H15.5967ZM15.5517 7.17352H19.2928V7.26352H15.5517V7.17352ZM19.2928 7.17352C19.7499 7.1731 20.1986 7.29309 20.5909 7.52075L20.5457 7.59859C20.1673 7.37898 19.7342 7.26312 19.2929 7.26352L19.2928 7.17352ZM20.5909 7.52075C20.9831 7.74841 21.3043 8.07522 21.5197 8.46633L21.4408 8.50975C21.2334 8.13321 20.9241 7.81819 20.5457 7.59859L20.5909 7.52075ZM21.5197 8.46629L23.5676 12.1755L23.4888 12.219L21.4409 8.50979L21.5197 8.46629ZM23.5676 12.1755C23.8804 12.7435 24.0444 13.3774 24.045 14.0213L23.955 14.0214C23.9544 13.3927 23.7943 12.7738 23.4888 12.2189L23.5676 12.1755ZM24.045 14.0214V17.9046H23.955V14.0214H24.045ZM24.045 17.9047C24.0445 18.2944 23.8844 18.6677 23.6003 18.9428L23.5377 18.8781C23.8047 18.6196 23.9546 18.2695 23.955 17.9046L24.045 17.9047ZM23.6003 18.9428C23.3163 19.2179 22.9315 19.3723 22.5304 19.3728L22.5303 19.2828C22.9084 19.2824 23.2707 19.1367 23.5377 18.8781L23.6003 18.9428ZM22.5303 19.3728H20.798V19.2828H22.5303V19.3728ZM20.8424 19.3351C20.7514 19.8903 20.4588 20.3956 20.0178 20.7602L19.9604 20.6909C20.3851 20.3398 20.6661 19.8539 20.7535 19.3205L20.8424 19.3351ZM20.0178 20.7602C19.5768 21.1249 19.0162 21.325 18.4367 21.325V21.235C18.9955 21.235 19.5358 21.042 19.9604 20.6909L20.0178 20.7602ZM18.4367 21.325C17.8573 21.325 17.2967 21.1249 16.8557 20.7602L16.913 20.6909C17.3376 21.042 17.8779 21.235 18.4367 21.235V21.325ZM16.8557 20.7602C16.4146 20.3956 16.1221 19.8903 16.0311 19.3351L16.1199 19.3205C16.2073 19.8539 16.4884 20.3398 16.913 20.6909L16.8557 20.7602ZM16.0755 19.3728H7.10964V19.2828H16.0755V19.3728ZM7.15405 19.3351C7.06305 19.8903 6.77052 20.3956 6.32948 20.7602L6.27214 20.6909C6.69674 20.3398 6.97782 19.8539 7.06524 19.3205L7.15405 19.3351ZM6.32948 20.7602C5.88848 21.1249 5.32785 21.325 4.74842 21.325V21.235C5.30722 21.235 5.8475 21.042 6.27214 20.6909L6.32948 20.7602ZM4.74842 21.325C4.16898 21.325 3.60836 21.1249 3.16735 20.7602L3.2247 20.6909C3.64934 21.042 4.18961 21.235 4.74842 21.235V21.325ZM3.16735 20.7602C2.72631 20.3956 2.43379 19.8903 2.34279 19.3351L2.4316 19.3205C2.51902 19.8539 2.80009 20.3398 3.2247 20.6909L3.16735 20.7602ZM2.3872 19.3728H0.459278V19.2828H2.3872V19.3728ZM0.459305 19.3728C0.393265 19.3728 0.327833 19.3603 0.266737 19.3358L0.300219 19.2522C0.350599 19.2724 0.404644 19.2828 0.459251 19.2828L0.459305 19.3728ZM0.266737 19.3358C0.205641 19.3113 0.150034 19.2753 0.103136 19.2299L0.165743 19.1653C0.204155 19.2025 0.249838 19.232 0.300219 19.2522L0.266737 19.3358ZM0.103136 19.2299C0.0562344 19.1845 0.0189533 19.1305 -0.00649452 19.071L0.0762653 19.0356C0.0969524 19.084 0.127335 19.1281 0.165743 19.1653L0.103136 19.2299ZM-0.00649452 19.071C-0.0319424 19.0114 -0.0450401 18.9475 -0.0450001 18.883L0.0450001 18.8831C0.0449677 18.9354 0.0555782 18.9872 0.0762653 19.0356L-0.00649452 19.071ZM-0.0450001 18.883V5.42327H0.0450001V18.883H-0.0450001ZM-0.0450001 5.42322C-0.044548 5.03348 0.115547 4.66014 0.39967 4.38501L0.462276 4.44966C0.195312 4.70818 0.0454235 5.05837 0.0450001 5.42332L-0.0450001 5.42322ZM0.39967 4.38501C0.683743 4.10992 1.0686 3.95544 1.46973 3.955L1.46983 4.045C1.09162 4.04541 0.72929 4.1911 0.462276 4.44966L0.39967 4.38501ZM20.953 9.46447H17.6783V9.37447H20.953V9.46447ZM17.7228 9.41251L18.2044 12.4862L18.1154 12.5001L17.6339 9.42644L17.7228 9.41251ZM18.1599 12.4482H22.6503V12.5382H18.1599V12.4482ZM22.6109 12.5149L20.9136 9.44122L20.9924 9.39772L22.6897 12.4714L22.6109 12.5149ZM18.4366 20.3454C18.721 20.3454 18.999 20.2637 19.2352 20.1109L19.2841 20.1864C19.0331 20.3488 18.7382 20.4354 18.4366 20.4354L18.4366 20.3454ZM19.2352 20.1109C19.4715 19.958 19.6554 19.7409 19.764 19.4872L19.8467 19.5226C19.731 19.7931 19.5351 20.024 19.2841 20.1864L19.2352 20.1109ZM19.764 19.4872C19.8725 19.2334 19.9009 18.9543 19.8456 18.6851L19.9337 18.667C19.9927 18.9543 19.9624 19.252 19.8467 19.5226L19.764 19.4872ZM19.8456 18.6851C19.7903 18.4158 19.6537 18.1682 19.4529 17.9738L19.5155 17.9091C19.7291 18.116 19.8747 18.3797 19.9337 18.667L19.8456 18.6851ZM19.4529 17.9738C19.2521 17.7793 18.9961 17.6468 18.7172 17.593L18.7342 17.5047C19.03 17.5616 19.302 17.7023 19.5155 17.9091L19.4529 17.9738ZM18.7172 17.593C18.4383 17.5393 18.1492 17.5669 17.8865 17.6722L17.853 17.5887C18.1317 17.4769 18.4384 17.4477 18.7342 17.5047L18.7172 17.593ZM17.8865 17.6722C17.6238 17.7776 17.3996 17.9559 17.2419 18.1844L17.1678 18.1333C17.3357 17.89 17.5742 17.7005 17.853 17.5887L17.8865 17.6722ZM17.2419 18.1844C17.0843 18.4129 17.0002 18.6813 17.0002 18.9558H16.9102C16.9102 18.6629 16.9999 18.3766 17.1678 18.1333L17.2419 18.1844ZM17.0002 18.9558C17.0007 19.3237 17.1519 19.6767 17.421 19.9373L17.3584 20.002C17.0721 19.7248 16.9108 19.3486 16.9102 18.9559L17.0002 18.9558ZM17.421 19.9373C17.6902 20.198 18.0554 20.3449 18.4367 20.3454L18.4366 20.4354C18.0324 20.4349 17.6446 20.2792 17.3584 20.002L17.421 19.9373ZM4.7484 20.3454C5.03282 20.3454 5.31074 20.2637 5.54701 20.1109L5.5959 20.1864C5.34492 20.3488 5.04998 20.4354 4.74839 20.4354L4.7484 20.3454ZM5.54701 20.1109C5.78327 19.958 5.96719 19.7409 6.07574 19.4872L6.15848 19.5226C6.04276 19.7931 5.8469 20.024 5.5959 20.1864L5.54701 20.1109ZM6.07574 19.4872C6.18428 19.2334 6.21266 18.9543 6.15735 18.6851L6.24551 18.667C6.30452 18.9543 6.27421 19.252 6.15848 19.5226L6.07574 19.4872ZM6.15735 18.6851C6.10205 18.4158 5.96548 18.1682 5.7647 17.9738L5.82731 17.9091C6.04089 18.116 6.1865 18.3797 6.24551 18.667L6.15735 18.6851ZM5.7647 17.9738C5.56389 17.7793 5.30788 17.6468 5.02896 17.593L5.04599 17.5047C5.34182 17.5616 5.61374 17.7023 5.82731 17.9091L5.7647 17.9738ZM5.02896 17.593C4.75004 17.5393 4.46094 17.5669 4.19828 17.6722L4.16477 17.5887C4.44352 17.4769 4.75016 17.4477 5.04599 17.5047L5.02896 17.593ZM4.19828 17.6722C3.93563 17.7776 3.71137 17.9559 3.5537 18.1844L3.47962 18.1333C3.64753 17.89 3.88601 17.7005 4.16477 17.5887L4.19828 17.6722ZM3.5537 18.1844C3.39604 18.4129 3.31199 18.6813 3.31199 18.9558H3.22199C3.22199 18.6629 3.31171 18.3766 3.47962 18.1333L3.5537 18.1844ZM3.31199 18.9558C3.31251 19.3237 3.46365 19.6767 3.73278 19.9373L3.67017 20.002C3.38389 19.7248 3.22254 19.3486 3.22199 18.9559L3.31199 18.9558ZM3.73278 19.9373C4.00195 20.198 4.36718 20.3449 4.74846 20.3454L4.74833 20.4354C4.34414 20.4349 3.95639 20.2792 3.67017 20.002L3.73278 19.9373ZM0.918558 18.393H2.41323V18.483H0.918558V18.393ZM2.36942 18.4277C2.49179 17.9046 2.79415 17.4375 3.22649 17.1031L3.28156 17.1743C2.86524 17.4963 2.57463 17.9456 2.45705 18.4482L2.36942 18.4277ZM3.22649 17.1031C3.6588 16.7687 4.19547 16.5866 4.74839 16.5866V16.6766C4.21514 16.6766 3.6979 16.8522 3.28156 17.1743L3.22649 17.1031ZM4.74839 16.5866C5.30132 16.5866 5.83799 16.7687 6.2703 17.1031L6.21524 17.1743C5.7989 16.8522 5.28165 16.6766 4.74839 16.6766V16.5866ZM6.2703 17.1031C6.70264 17.4375 7.00499 17.9046 7.12737 18.4277L7.03974 18.4482C6.92216 17.9456 6.63155 17.4963 6.21524 17.1743L6.2703 17.1031ZM7.08355 18.393H16.1014V18.483H7.08355V18.393ZM16.0575 18.4277C16.1799 17.9046 16.4823 17.4375 16.9146 17.1031L16.9697 17.1743C16.5534 17.4963 16.2628 17.9456 16.1452 18.4482L16.0575 18.4277ZM16.9146 17.1031C17.347 16.7687 17.8836 16.5867 18.4365 16.5867V16.6767C17.9033 16.6767 17.3861 16.8523 16.9697 17.1743L16.9146 17.1031ZM18.4365 16.5867C18.9895 16.5867 19.5261 16.7687 19.9584 17.1031L19.9034 17.1743C19.487 16.8523 18.9698 16.6767 18.4365 16.6767V16.5867ZM19.9584 17.1031C20.3908 17.4375 20.6931 17.9046 20.8155 18.4277L20.7279 18.4482C20.6103 17.9456 20.3197 17.4963 19.9034 17.1743L19.9584 17.1031ZM20.7717 18.393H22.5302V18.483H20.7717V18.393ZM22.5302 18.393C22.6648 18.3929 22.7937 18.341 22.8885 18.2492L22.9511 18.3138C22.8392 18.4222 22.6878 18.4828 22.5303 18.483L22.5302 18.393ZM22.8885 18.2492C22.9832 18.1574 23.0362 18.0334 23.0363 17.9042L23.1263 17.9043C23.1262 18.0582 23.063 18.2055 22.9511 18.3138L22.8885 18.2492ZM23.0363 17.9043V17.3654H23.1263V17.9043H23.0363ZM23.0813 17.4104H21.9542V17.3204H23.0813V17.4104ZM21.9542 17.4104C21.8209 17.4104 21.6928 17.3591 21.5982 17.2674L21.6608 17.2028C21.7384 17.2779 21.8439 17.3204 21.9542 17.3204V17.4104ZM21.5982 17.2674C21.5034 17.1757 21.45 17.051 21.45 16.9206H21.54C21.54 17.0262 21.5832 17.1277 21.6608 17.2028L21.5982 17.2674ZM21.45 16.9206C21.45 16.7902 21.5034 16.6655 21.5982 16.5738L21.6608 16.6385C21.5832 16.7135 21.54 16.8151 21.54 16.9206H21.45ZM21.5982 16.5738C21.6928 16.4821 21.8209 16.4309 21.9542 16.4309V16.5209C21.8439 16.5209 21.7384 16.5633 21.6608 16.6385L21.5982 16.5738ZM21.9542 16.4309H23.0814V16.5209H21.9542V16.4309ZM23.0364 16.4759V14.0209H23.1264V16.4759H23.0364ZM23.0364 14.0212C23.035 13.8098 23.0099 13.5991 22.9616 13.3929L23.0492 13.3724C23.099 13.5851 23.1249 13.8024 23.1264 14.0206L23.0364 14.0212ZM23.0054 13.4277H17.7651V13.3377H23.0054V13.4277ZM17.765 13.4277C17.6448 13.4276 17.5284 13.3859 17.437 13.3097L17.4946 13.2405C17.5696 13.3031 17.6656 13.3376 17.7651 13.3377L17.765 13.4277ZM17.437 13.3097C17.3455 13.2335 17.2849 13.1278 17.2667 13.0116L17.3557 12.9977C17.3704 13.0918 17.4195 13.178 17.4946 13.2405L17.437 13.3097ZM17.2667 13.0116L16.6455 9.04845L16.7344 9.03451L17.3557 12.9977L17.2667 13.0116ZM16.6455 9.04854C16.6344 8.97859 16.6391 8.90714 16.6592 8.83912L16.7455 8.86462C16.7292 8.91981 16.7254 8.97772 16.7344 9.03442L16.6455 9.04854ZM16.6592 8.83912C16.6793 8.77111 16.7143 8.70822 16.7617 8.65475L16.8291 8.71449C16.7903 8.7582 16.7618 8.80943 16.7455 8.86462L16.6592 8.83912ZM16.7617 8.65475C16.8092 8.60128 16.8679 8.55849 16.9339 8.52923L16.9704 8.6115C16.9161 8.63561 16.8679 8.67077 16.8291 8.71449L16.7617 8.65475ZM16.9339 8.52923C16.9999 8.49997 17.0715 8.48491 17.144 8.48503L17.1438 8.57503C17.0839 8.57493 17.0248 8.58739 16.9704 8.6115L16.9339 8.52923ZM17.1439 8.48503H20.3713V8.57503H17.1439V8.48503ZM20.3406 8.56292C20.0594 8.30043 19.6839 8.15333 19.2928 8.15288L19.2929 8.06288C19.7064 8.06336 20.1039 8.21885 20.402 8.49713L20.3406 8.56292ZM19.2928 8.15288H15.5518V8.06288H19.2928V8.15288ZM15.5968 8.10788V17.0136H15.5068V8.10788H15.5968ZM15.5968 17.0136C15.5968 17.1439 15.5433 17.2686 15.4486 17.3604L15.386 17.2957C15.4635 17.2206 15.5068 17.1191 15.5068 17.0136H15.5968ZM15.4486 17.3604C15.3539 17.452 15.2258 17.5033 15.0925 17.5033V17.4133C15.2028 17.4133 15.3084 17.3708 15.386 17.2957L15.4486 17.3604ZM15.0925 17.5033C14.9592 17.5033 14.8311 17.452 14.7364 17.3604L14.7991 17.2957C14.8766 17.3708 14.9822 17.4133 15.0925 17.4133V17.5033ZM14.7364 17.3604C14.6417 17.2686 14.5882 17.1439 14.5882 17.0136H14.6782C14.6782 17.1191 14.7215 17.2206 14.7991 17.2957L14.7364 17.3604ZM14.5882 17.0136V5.42327H14.6782V17.0136H14.5882ZM14.5882 5.42332C14.5881 5.29421 14.5351 5.17012 14.4403 5.07837L14.503 5.01372C14.6149 5.12208 14.6781 5.26933 14.6782 5.42322L14.5882 5.42332ZM14.4403 5.07837C14.3455 4.98658 14.2167 4.93471 14.0821 4.93458L14.0821 4.84458C14.2397 4.84473 14.3911 4.9054 14.503 5.01372L14.4403 5.07837ZM14.0821 4.93458H1.46978V4.84458H14.0821V4.93458ZM1.46983 4.93458C1.33516 4.93471 1.20633 4.98658 1.11154 5.07837L1.04893 5.01372C1.16079 4.9054 1.31215 4.84473 1.46974 4.84458L1.46983 4.93458ZM1.11154 5.07837C1.01679 5.17012 0.963783 5.29421 0.96365 5.42332L0.87365 5.42322C0.873808 5.26933 0.937025 5.12208 1.04893 5.01372L1.11154 5.07837ZM0.96365 5.42327L0.963558 18.438H0.873558L0.87365 5.42327L0.96365 5.42327Z" fill="#1C2938" mask="url(#path-1-outside-1_777_7829)"/>
</g>
<defs>
<clipPath id="clip0_777_7829">
<rect width="24" height="24" fill="white"/>
</clipPath>
</defs>
</svg>
