<svg width="32" height="32" viewBox="0 0 32 32" fill="none" xmlns="http://www.w3.org/2000/svg">
<path fill-rule="evenodd" clip-rule="evenodd" d="M27.3917 8.24809C26.5308 8.62959 25.607 8.88831 24.6364 9.00382C25.6275 8.41035 26.3861 7.46902 26.7456 6.3508C25.816 6.90039 24.7899 7.29947 23.6965 7.5158C22.8209 6.58177 21.5756 6 20.1942 6C17.5441 6 15.3954 8.14872 15.3954 10.7973C15.3954 11.173 15.4378 11.5399 15.5197 11.8907C11.5322 11.6904 7.99629 9.77999 5.62978 6.877C5.2161 7.58449 4.98077 8.40886 4.98077 9.28884C4.98077 10.9537 5.82857 12.4228 7.11489 13.2822C6.32848 13.2559 5.58884 13.0396 4.94133 12.68V12.7399C4.94133 15.064 6.59599 17.0037 8.79 17.4452C8.38802 17.5534 7.96414 17.6133 7.52562 17.6133C7.21576 17.6133 6.9161 17.5826 6.62229 17.5241C7.23326 19.4317 9.00488 20.8188 11.1039 20.8568C9.4624 22.1432 7.39261 22.9076 5.14452 22.9076C4.75717 22.9076 4.37564 22.8842 4 22.8418C6.12387 24.2056 8.64533 25.0008 11.3553 25.0008C20.1826 25.0008 25.0077 17.6893 25.0077 11.3484L24.9916 10.7272C25.9344 10.0548 26.75 9.20991 27.3917 8.24809Z" fill="#1C2938"/>
</svg>
