<svg width="32" height="32" viewBox="0 0 32 32" fill="none" xmlns="http://www.w3.org/2000/svg">
<path d="M27.4985 10.6286C27.2225 9.59394 26.4092 8.77906 25.3766 8.50251C23.505 8 16 8 16 8C16 8 8.49503 8 6.62336 8.50251C5.59077 8.7791 4.77752 9.59394 4.5015 10.6286C4 12.5041 4 16.417 4 16.417C4 16.417 4 20.3299 4.5015 22.2053C4.77752 23.24 5.59077 24.0209 6.62336 24.2975C8.49503 24.8 16 24.8 16 24.8C16 24.8 23.505 24.8 25.3766 24.2975C26.4092 24.0209 27.2225 23.24 27.4985 22.2053C28 20.3299 28 16.417 28 16.417C28 16.417 28 12.5041 27.4985 10.6286ZM13.5454 19.9696V12.8643L19.8181 16.4171L13.5454 19.9696Z" fill="#1C2938"/>
</svg>
