<?xml version="1.0" encoding="UTF-8"?>
<svg preserveAspectRatio="xMaxYMin meet"
 viewBox="0 0 490 130" version="1.1" xmlns="http://www.w3.org/2000/svg" xmlns:xlink="http://www.w3.org/1999/xlink">
    <path y="0" x="0" d="M0,0 L489,0 L489,95.4545455 C480.630582,92.5699572 474.266157,91.6608663 469.906725,92.7272727 C444.320233,98.9862528 423.945593,107.819602 412.626898,108.545455 C391.663443,109.889812 373.921708,100.497946 361.711497,100.909091 C335.63278,101.78722 315.156127,108.537777 295.94577,108.545455 C263.723098,108.558333 239.832363,101.40403 233.892625,102 C192.70808,106.132292 192.523861,126 165.475054,126 C147.973262,126 62.8350659,110.301913 59.9316703,108.545455 C53.9208243,104.909091 52.8600868,96.5454545 56.7494577,83.4545455 C46.1420824,86 38.186551,81.6363636 32.8828633,70.3636364 C27.5791757,59.0909091 16.6182213,56.5454545 0,62.7272727 L0,0 Z" id="Rectangle-Copy-3" fill="#FDFAF8"></path>
    <path d="M0.584863907,68.8539249 C9.48719181,67.0150837 17.5269238,67.516449 23.4893617,70.1094422 C26.3914778,71.3709943 28.775536,73.1802223 30.2947558,75.4094721 C31.846154,77.6878439 32.4937408,80.4119061 33.7464263,82.8384859 C34.8792372,85.0315372 36.5208187,87.163761 39.6128276,88.0134733 C42.8358236,88.8989051 46.7974749,87.9694698 50.6512476,87.7613 C52.0895335,87.6838322 53.5899394,87.7671577 53.8501759,88.7820448 C54.1892032,90.0925633 52.7142362,92.0704336 51.9004349,93.561172 C50.088897,96.8827782 49.3687682,100.049412 49.8934958,102.893456 C52.3272286,116.096588 72.6277255,116.528505 89.137766,117.748999 C98.5858935,118.447326 107.776528,119.51494 116.673179,120.944235 C125.528503,122.365606 133.909549,124.285266 142.270439,126.271529 C149.287335,127.938601 156.996224,129.438208 166.180985,127.722297 C176.71046,125.754055 186.647044,120.051751 196.500386,115.013282 C201.413872,112.501808 206.423971,110.116284 211.607498,108.512711 C215.730158,107.236947 219.779274,106.474662 223.698243,106.105129 C231.634941,105.357359 238.764169,106.247552 245.471687,107.37928 C252.642361,108.589312 259.468759,110.216256 266.818786,111.208637 C275.208071,112.342011 284.328961,112.516368 293.852754,111.813697 C303.469371,111.104547 313.340638,109.20514 323.385428,107.133678 C332.732413,105.205791 342.37199,103.32574 350.582875,104.081746 C359.446657,104.897094 365.782659,108.58604 373.924036,110.233003 C381.417001,111.748293 389.862812,112.079202 398.889181,111.216054 C407.712088,110.372537 417.081045,108.357789 426.3353,105.2666 C436.513509,101.866875 447.676275,96.6908023 457.32741,96.7404268 C461.010881,96.7588579 464.412529,97.4971253 466.019455,99.531999 C466.362055,99.9667604 467.934527,100.508065 470.73687,101.155914 C471.084084,98.9686706 471.087672,97.6594934 470.747635,97.2283824 C467.127176,92.6399327 458.355528,92.4136639 449.374979,94.4663091 C438.733055,96.8995128 428.068786,101.952959 417.383343,104.692618 C408.037877,107.088728 398.767025,108.256706 390.33405,108.14868 C381.382496,108.033444 374.067756,106.279008 366.994015,103.90813 C363.262727,102.657753 359.481024,101.447971 355.181712,100.808359 C351.145228,100.208373 346.625093,100.26489 341.952642,100.726295 C332.580565,101.65099 322.713286,104.189103 313.092457,105.968497 C302.956329,107.843298 293.066385,108.783817 283.775854,108.68877 C275.069241,108.600497 267.149936,107.494671 259.471197,106.018454 C246.045098,103.435052 231.802014,99.9096103 214.217418,104.546266 C203.759663,107.303924 194.156799,113.028016 184.341323,117.909083 C179.335293,120.398842 174.12845,122.709871 168.885733,123.926096 C164.302857,124.99052 160.00382,125.092297 156.080141,124.74732 C147.525319,123.996552 140.264529,121.482325 132.431852,119.85865 C123.669611,118.040539 114.594615,116.579226 105.230393,115.501324 C96.1043839,114.45099 86.5044406,114.093845 77.2941093,113.168098 C68.9384595,112.328975 60.9005635,110.577485 56.9255832,105.720856 C55.1632292,103.566641 54.2188936,100.834178 54.7597555,97.7415234 C55.3155512,94.566773 58.4794239,91.0779717 58.7579811,87.9875238 C59.0319625,84.9380514 55.8493828,84.0035348 51.9007976,84.2692547 C48.2535518,84.5144183 44.3115367,85.510443 41.7223124,84.1752753 C39.0556597,82.7990031 38.179609,80.06734 37.2274669,77.7000882 C36.1940165,75.1279486 35.0412875,72.6807266 32.9674796,70.658214 C28.9295936,66.7180526 22.2075344,64.4417114 14.3235148,64.2065169 C10.4001148,64.0898733 6.19061305,64.4613372 1.83320478,65.3618007 C1.73466624,65.3821605 1.12359798,65.4132149 0,65.454964 L0,69.025059" id="Fill-1" fill="#98B7DC"></path>
</svg>
